<svg xmlns="http://www.w3.org/2000/svg" viewBox="0 0 124.86 64.03"><defs><style>.cls-1{fill:#fff;}</style></defs><title>logo</title><g id="Header"><path class="cls-1" d="M105.88,0c-.8,17.59-37.24,48.94-6.15,64-13.46-14.55-2.39-34.35,5.07-37.45C105.87,36.71,125,45.12,110.29,64,145.39,48.91,106.07,18.07,105.88,0ZM116.5,57.36c3.73-7.5,3.73-11.38.82-19.83C122.86,42.1,124,51.55,116.5,57.36Z"/><path class="cls-1" d="M102.39,40.22c1,4.32,6.11,5.27,8.3,11.49,1.45,4.11,1.18,8.63-3.69,12.32,2.16-4.22.75-6.09-1.57-10-.35,4.9-3.76,4.32-1.31,10C104.12,64,93.17,56.07,102.39,40.22Z"/><path class="cls-1" d="M4.35,60.15V59.08H8v3.39a6.43,6.43,0,0,1-1.75,1.07,5,5,0,0,1-1.85.36,4.73,4.73,0,0,1-2.33-.58A3.73,3.73,0,0,1,.53,61.65,5.48,5.48,0,0,1,0,59.21a5.91,5.91,0,0,1,.53-2.49A3.64,3.64,0,0,1,2.06,55a4.59,4.59,0,0,1,2.29-.56,4.35,4.35,0,0,1,1.7.32,2.84,2.84,0,0,1,1.19.9,4.08,4.08,0,0,1,.66,1.5l-1,.3a3.46,3.46,0,0,0-.49-1.1,2,2,0,0,0-.83-.64,2.91,2.91,0,0,0-1.2-.24A3.37,3.37,0,0,0,3,55.72a2.54,2.54,0,0,0-.93.66,3.18,3.18,0,0,0-.55.9,5,5,0,0,0-.33,1.84,4.67,4.67,0,0,0,.4,2A2.63,2.63,0,0,0,2.75,62.4a3.45,3.45,0,0,0,1.62.4,3.68,3.68,0,0,0,1.46-.3,3.72,3.72,0,0,0,1.08-.65v-1.7Z"/><path class="cls-1" d="M19.21,63.73V54.59h3.85a4.89,4.89,0,0,1,1.77.25,2,2,0,0,1,1,.87,2.7,2.7,0,0,1,.36,1.38,2.37,2.37,0,0,1-.6,1.64,3,3,0,0,1-1.85.85,3,3,0,0,1,.69.46,6.24,6.24,0,0,1,1,1.22l1.51,2.49H25.42l-1.15-1.9q-.5-.82-.83-1.26a2.67,2.67,0,0,0-.58-.61,1.69,1.69,0,0,0-.52-.24,3.26,3.26,0,0,0-.64,0H20.36v4.06Zm1.15-5.11h2.47a3.53,3.53,0,0,0,1.23-.17,1.32,1.32,0,0,0,.68-.55,1.54,1.54,0,0,0,.23-.82A1.4,1.4,0,0,0,24.52,56a2,2,0,0,0-1.41-.42H20.36Z"/><path class="cls-1" d="M37.07,59.28a5.13,5.13,0,0,1,1.16-3.56,3.85,3.85,0,0,1,3-1.29,4,4,0,0,1,2.17.6,3.89,3.89,0,0,1,1.47,1.69,5.72,5.72,0,0,1,.51,2.45,5.62,5.62,0,0,1-.53,2.49,3.75,3.75,0,0,1-1.51,1.66,4.15,4.15,0,0,1-2.11.56,3.93,3.93,0,0,1-3.66-2.33A5.38,5.38,0,0,1,37.07,59.28Zm1.19,0a3.78,3.78,0,0,0,.84,2.6,2.85,2.85,0,0,0,4.25,0,4,4,0,0,0,.84-2.73,4.89,4.89,0,0,0-.36-1.95,2.86,2.86,0,0,0-1-1.29,2.74,2.74,0,0,0-1.55-.46,2.86,2.86,0,0,0-2.1.88A4.08,4.08,0,0,0,38.26,59.3Z"/><path class="cls-1" d="M62,54.59h1.15v5.28a6.56,6.56,0,0,1-.3,2.19,2.64,2.64,0,0,1-1.07,1.32,3.64,3.64,0,0,1-2,.51,4,4,0,0,1-2-.44,2.48,2.48,0,0,1-1.11-1.28,6.4,6.4,0,0,1-.33-2.29V54.59H57.5v5.28a5.39,5.39,0,0,0,.21,1.76,1.66,1.66,0,0,0,.72.87,2.41,2.41,0,0,0,1.25.31,2.32,2.32,0,0,0,1.81-.6A3.62,3.62,0,0,0,62,59.87Z"/><path class="cls-1" d="M74.56,63.73V54.59h3.28a7.48,7.48,0,0,1,1.32.09,2.54,2.54,0,0,1,1.07.43,2.22,2.22,0,0,1,.7.88,3.1,3.1,0,0,1-.44,3.22,3.27,3.27,0,0,1-2.55.81H75.71v3.72Zm1.15-4.8H78a2.3,2.3,0,0,0,1.58-.44A1.6,1.6,0,0,0,80,57.27a1.71,1.71,0,0,0-.28-1,1.29,1.29,0,0,0-.73-.54,4.67,4.67,0,0,0-1.07-.08H75.71Z"/><path class="cls-1" d="M20.18,47.75,13.8,35.33H10V47.75H.24v-37h14c8,0,14.81,2.73,14.81,12,0,5.3-2.39,8.77-6,10.71l8,14.36ZM10,27.58h3.53c3.87,0,5.93-1.71,5.93-4.9s-2.05-4.22-5.93-4.22H10Z"/><path class="cls-1" d="M34.37,36.41C37,38.52,40.29,40,43,40c3,0,4.22-1,4.22-2.62s-1.88-2.34-5-3.59l-4.61-1.94c-4-1.6-7.46-5-7.46-10.31,0-6.32,5.7-11.51,13.79-11.51a17.8,17.8,0,0,1,12.31,5l-4.9,6.15a12.2,12.2,0,0,0-7.41-2.68c-2.39,0-3.87.85-3.87,2.51s2.11,2.39,5.47,3.7L50,26.44c4.62,1.82,7.24,5,7.24,10.14,0,6.27-5.24,11.85-14.47,11.85a21.45,21.45,0,0,1-14-5.3Z"/><path class="cls-1" d="M58.92,10.72H83.08v8.2H68.72V26H81v8.2H68.72V47.75h-9.8Z"/></g></svg>