<svg id="Layer_1" data-name="Layer 1" xmlns="http://www.w3.org/2000/svg" viewBox="0 0 869.85 479.76"><defs><style>.cls-1,.cls-2,.cls-4{fill:#fff;}.cls-2{font-size:86.32px;font-family:ArialMT, Arial;letter-spacing:0.78em;}.cls-3{letter-spacing:0.76em;}.cls-4{font-size:385.02px;font-family:SourceSansPro-Black, Source Sans Pro;letter-spacing:-0.09em;}.cls-5{letter-spacing:-0.07em;}</style></defs><title>logo</title><path class="cls-1" d="M741.57,0C736.14,118.89,489.95,330.7,700,432.67c-90.92-98.29-16.17-232.11,34.29-253.06,7.22,68.48,136.51,125.26,37.08,253.06C1008.57,330.5,742.91,122.13,741.57,0Zm71.81,387.58c25.18-50.66,25.18-76.89,5.52-134C856.33,284.47,864.34,348.32,813.38,387.58Z"/><path class="cls-1" d="M718,271.78c6.81,29.2,41.29,35.64,56.09,77.67,9.78,27.78,8,58.34-24.93,83.25,14.6-28.52,5.09-41.17-10.6-67.46-2.39,33.1-25.42,29.2-8.87,67.46C729.67,432.69,655.69,378.86,718,271.78Z"/><text class="cls-2" transform="translate(21.75 430.68) scale(0.95 1)">GROU<tspan class="cls-3" x="528.26" y="0">P</tspan></text><text class="cls-4" transform="translate(0 322.67)">R<tspan class="cls-5" x="208.3" y="0">SF</tspan></text></svg>